<?xml version="1.0" standalone="no"?>
<!DOCTYPE svg PUBLIC "-//W3C//DTD SVG 20010904//EN"
 "http://www.w3.org/TR/2001/REC-SVG-20010904/DTD/svg10.dtd">
<svg version="1.0" xmlns="http://www.w3.org/2000/svg"
 width="400.000000pt" height="400.000000pt" viewBox="0 0 400.000000 400.000000"
 preserveAspectRatio="xMidYMid meet">
<metadata>
Created by potrace 1.11, written by Peter Selinger 2001-2013
</metadata>
<g transform="translate(0.000000,400.000000) scale(0.100000,-0.100000)"
fill="#000000" stroke="none">
<path d="M2240 3950 l0 -50 -145 0 -145 0 0 -45 0 -45 -50 0 -50 0 0 -50 0
-50 -50 0 -50 0 0 -195 0 -195 50 0 50 0 0 -50 0 -50 50 0 50 0 0 -45 0 -45
145 0 145 0 0 -55 0 -55 150 0 150 0 0 -45 0 -45 95 0 95 0 0 -50 0 -50 95 0
95 0 0 -95 0 -95 50 0 50 0 0 -50 0 -49 -97 -3 -98 -3 -3 -47 -3 -48 -44 0
-44 0 -3 -47 -3 -48 -45 0 -45 0 -3 98 -3 97 -44 0 -44 0 -3 98 -3 97 -52 3
-53 3 0 45 0 44 -45 0 -45 0 0 -45 0 -45 -50 0 -50 0 0 -99 0 -100 -47 -3 -48
-3 -3 -97 -3 -98 -44 0 -45 0 0 -95 0 -95 -50 0 -50 0 0 -50 0 -50 -100 0
-100 0 0 -50 0 -50 -95 0 -95 0 0 -45 0 -45 -100 0 -100 0 0 -50 0 -50 -45 0
-45 0 0 -50 0 -50 45 0 45 0 0 -50 0 -50 100 0 100 0 0 -50 0 -50 95 0 95 0 0
-45 0 -45 -44 0 -45 0 -3 -47 -3 -48 -47 -3 -48 -3 0 -100 0 -99 -100 0 -100
0 0 -45 0 -45 -145 0 -145 0 0 -50 0 -50 -195 0 -195 0 0 50 0 51 -143 -3
-142 -3 -3 -292 -2 -293 50 0 50 0 0 -45 0 -45 95 0 95 0 0 -150 0 -150 150 0
150 0 0 50 0 50 95 0 95 0 0 50 0 50 44 0 45 0 3 47 3 48 98 3 97 3 0 44 0 45
50 0 50 0 0 50 0 50 50 0 50 0 0 100 0 100 45 0 45 0 0 95 0 95 99 0 100 0 3
48 3 47 48 3 47 3 0 45 0 44 45 0 45 0 0 -95 0 -95 50 0 50 0 0 -94 0 -95 48
-3 47 -3 3 -47 3 -48 45 0 44 0 0 50 0 50 55 0 55 0 0 95 0 95 45 0 45 0 0 95
0 95 50 0 50 0 0 100 0 100 44 0 45 0 3 48 3 47 98 3 97 3 0 44 0 44 98 3 97
3 3 48 3 47 95 0 94 0 0 50 0 50 45 0 45 0 0 50 0 50 -45 0 -45 0 0 50 0 50
-95 0 -95 0 0 45 0 44 -97 3 -98 3 0 45 0 45 48 3 47 3 0 50 0 49 50 0 50 0 0
95 0 95 45 0 44 0 3 98 3 97 48 3 47 3 0 100 0 99 45 0 44 0 3 93 3 92 53 3
52 3 0 195 0 194 -55 0 -55 0 0 95 0 95 -45 0 -45 0 0 55 0 55 -50 0 -50 0 0
45 0 45 -45 0 -45 0 0 50 0 50 -100 0 -100 0 0 45 0 45 -145 0 -145 0 0 50 0
50 -245 0 -245 0 0 -50z m490 -285 l0 -45 145 0 145 0 0 -55 0 -55 100 0 100
0 0 -95 0 -95 45 0 45 0 0 -195 0 -195 -44 0 -45 0 -3 -47 -3 -48 -47 -3 -48
-3 0 50 0 51 -50 0 -50 0 0 45 0 45 -50 0 -50 0 0 55 0 55 -95 0 -95 0 0 45 0
45 -95 0 -95 0 0 50 0 50 -150 0 -150 0 0 50 0 50 -95 0 -95 0 0 100 0 100 95
0 95 0 0 45 0 45 245 0 245 0 0 -45z m-300 -1035 l0 -100 50 0 49 0 3 -92 3
-93 48 -3 47 -3 0 -95 0 -94 44 0 45 0 3 -52 3 -53 48 -3 47 -3 0 -45 0 -44
99 0 100 0 3 -47 3 -48 93 -3 92 -3 0 -44 0 -45 95 0 95 0 0 -45 0 -44 -92 -3
-93 -3 -3 -52 -3 -53 -95 0 -94 0 0 -45 0 -45 -100 0 -100 0 0 -50 0 -50 -50
0 -50 0 0 -44 0 -45 -42 -3 -43 -3 -3 -97 -3 -97 -47 -3 -47 -3 -3 -98 -3 -97
-49 0 -50 0 0 -95 0 -95 -45 0 -45 0 0 95 0 95 -50 0 -50 0 0 100 0 100 -45 0
-44 0 -3 98 -3 97 -47 3 -48 3 0 45 0 44 -44 0 -45 0 -3 48 -3 47 -97 3 -98 3
0 44 0 45 -100 0 -100 0 0 49 0 49 -100 7 -100 8 0 43 0 44 100 0 100 0 0 44
0 44 100 7 100 7 0 44 0 43 98 3 97 3 3 42 c3 42 3 42 45 45 l42 3 3 53 3 52
44 0 43 0 7 95 7 95 44 0 44 0 0 94 0 95 48 3 47 3 3 98 3 97 44 0 45 0 0
-100z m600 -240 l0 -50 45 0 45 0 0 -89 0 -90 -47 -3 -48 -3 -3 -52 -3 -53
-95 0 -94 0 0 50 0 50 -50 0 -50 0 0 94 0 95 48 3 47 3 3 48 3 47 100 0 99 0
0 -50z m-1080 -1070 l0 -50 45 0 45 0 0 -95 0 -95 -45 0 -45 0 0 -50 0 -50
-95 0 -95 0 0 45 0 45 -50 0 -50 0 0 100 0 100 45 0 45 0 0 50 0 50 100 0 100
0 0 -50z"/>
</g>
</svg>
